<svg width="48" height="48" viewBox="0 0 48 48" fill="none" xmlns="http://www.w3.org/2000/svg">
<g clip-path="url(#clip0_12_4)">
<path d="M8.97257 35.8535C8.936 35.8535 8.88229 35.8331 8.81143 35.7922C7.27543 34.6558 5.77143 33.2092 4.29943 31.4522C2.82743 29.6953 1.58171 27.9001 0.562286 26.0666C0.187429 25.469 0 24.7808 0 24.0019C0 23.8232 0.0182857 23.6342 0.0548571 23.435C0.0914286 23.2358 0.126857 23.0558 0.161143 22.8949C0.195429 22.734 0.258286 22.554 0.349714 22.3548C0.441143 22.1556 0.516571 21.996 0.576 21.876C0.635429 21.756 0.729143 21.5861 0.857143 21.3665C0.985143 21.1469 1.07429 20.9975 1.12457 20.9184C1.17486 20.8392 1.28229 20.6847 1.44686 20.4549C1.61143 20.225 1.70971 20.0808 1.74171 20.022C5.02857 15.0143 9.064 11.3728 13.848 9.09744C11.8846 5.14692 10.9029 3.04269 10.9029 2.78477C10.9029 2.40683 11.0549 2.11699 11.3589 1.91525C13.4297 0.638417 14.5726 0 14.7874 0C15.1097 0 15.36 0.159604 15.5383 0.478813L18.8606 7.33158C20.504 6.95364 22.2183 6.76466 24.0034 6.76466C28.7531 6.76466 33.1954 8.13598 37.3303 10.8786C41.4651 13.6213 44.8446 17.3075 47.4686 21.9373C47.8251 22.5553 48.0034 23.2435 48.0034 24.0019C48.0034 24.7604 47.8251 25.4486 47.4686 26.0666C45.8434 28.8986 43.8926 31.4267 41.616 33.6509C39.3394 35.8752 36.8526 37.6257 34.1554 38.9026C36.1189 42.8531 37.1006 44.9573 37.1006 45.2152C37.1006 45.6136 36.9486 45.9034 36.6446 46.0848C34.5737 47.3616 33.44 48 33.2434 48C32.9051 48 32.6457 47.8404 32.4651 47.5212L29.1429 40.6684L27.4286 37.1061L15.5349 12.5679L15.7234 12.3572C14.688 12.8347 13.8046 13.3033 13.0731 13.763C13.1257 13.8626 14.2594 16.1966 16.4743 20.7651C18.6891 25.3337 20.8583 29.8128 22.9817 34.2025C25.1051 38.5923 26.168 40.8165 26.1703 40.8753C26.1703 41.0157 26.0903 41.1051 25.9303 41.1434C25.6971 41.2021 25.0537 41.2315 24 41.2315C22.9829 41.2315 22.4469 41.1613 22.392 41.0208L10.1794 15.8544C9.48229 16.4137 8.74971 17.0917 7.98171 17.8884C8.40914 18.7465 10.32 22.6715 13.7143 29.6634C17.1086 36.6553 18.8046 40.1922 18.8023 40.2739C18.8023 40.4731 18.704 40.5727 18.5074 40.5727C18.2583 40.5727 17.5211 40.353 16.296 39.9138C15.0709 39.4746 14.424 39.195 14.3554 39.0749L11.5166 33.1798L5.51657 20.8188C4.73029 21.876 4.03429 22.9332 3.42857 23.9904C3.46514 24.0492 3.62629 24.2981 3.912 24.7374C4.19771 25.1766 4.40343 25.5162 4.52914 25.7563L9.24343 35.5432C9.24343 35.7424 9.15429 35.842 8.976 35.842L8.97257 35.8535ZM31.2069 32.8006L32.52 35.5241C37.3954 33.31 41.4137 29.4693 44.5749 24.0019C41.3611 18.4758 37.2629 14.5955 32.28 12.361C33.4754 13.6379 34.3954 15.119 35.04 16.8044C35.6846 18.4898 36.0057 20.2506 36.0034 22.0867C36.0034 24.2011 35.584 26.2006 34.7451 28.0852C33.9063 29.9698 32.728 31.5403 31.2103 32.7967L31.2069 32.8006ZM22.7143 14.4257C22.7143 14.824 22.8389 15.1637 23.088 15.4446C23.3371 15.7255 23.6411 15.8647 24 15.8621C25.536 15.8621 26.848 16.4712 27.936 17.6893C29.024 18.9073 29.5691 20.3732 29.5714 22.0867C29.5714 22.485 29.696 22.8247 29.9451 23.1056C30.1943 23.3865 30.4983 23.5257 30.8571 23.5231C31.216 23.5205 31.52 23.3814 31.7691 23.1056C32.0183 22.8298 32.1429 22.4901 32.1429 22.0867C32.1429 19.5739 31.3486 17.4288 29.76 15.6514C28.1714 13.8741 26.2514 12.9867 24 12.9892C23.6434 12.9892 23.3394 13.1284 23.088 13.4068C22.8366 13.6851 22.712 14.0247 22.7143 14.4257ZM32.5166 12.4798L32.2766 12.361L32.4651 12.5717L32.5166 12.4798Z" fill="#00CC83"/>
</g>
<defs>
<clipPath id="clip0_12_4">
<rect width="48" height="48" fill="white"/>
</clipPath>
</defs>
</svg>
