<svg xmlns="http://www.w3.org/2000/svg" width="255" height="45" viewBox="0 0 255 45"><rect width="100%" height="100%"/><path fill="#FFF" d="M51.405 28.935v-12.85h4q2.73 0 3.97.78 1.23.78 1.23 2.47 0 1.15-.54 1.89t-1.44.89v.09q1.23.27 1.77 1.02.54.74.54 1.98 0 1.76-1.27 2.75-1.27.98-3.45.98h-4.81Zm2.72-10.62v2.86h1.59q1.1 0 1.6-.34.5-.35.5-1.14 0-.74-.54-1.06-.54-.32-1.71-.32h-1.44Zm1.69 5.02h-1.69v3.35h1.78q1.12 0 1.66-.43.54-.43.54-1.32 0-1.6-2.29-1.6Zm15.43-7.25h2.71v8.31q0 1.43-.63 2.5-.64 1.07-1.85 1.64-1.2.58-2.84.58-2.48 0-3.85-1.27t-1.37-3.48v-8.28h2.71v7.87q0 1.48.6 2.18.6.69 1.98.69 1.33 0 1.93-.7.61-.7.61-2.19v-7.85Zm13.44 9.28q0 1.74-1.25 2.74-1.25 1.01-3.48 1.01-2.06 0-3.64-.78v-2.53q1.3.58 2.2.82.9.24 1.65.24.89 0 1.37-.35.48-.34.48-1.02 0-.37-.21-.67-.21-.29-.62-.57-.41-.27-1.66-.87-1.18-.55-1.77-1.06-.59-.51-.94-1.19-.35-.67-.35-1.58 0-1.7 1.15-2.68 1.16-.97 3.2-.97 1 0 1.91.23.91.24 1.9.67l-.88 2.12q-1.02-.42-1.7-.59-.67-.17-1.32-.17-.77 0-1.19.36-.41.36-.41.94 0 .36.17.63.16.27.53.52.36.25 1.73.9 1.8.86 2.47 1.73.66.86.66 2.12Zm5.06 3.57h-2.73v-12.85h2.73v12.85Zm14.63-12.85v12.85h-3.46l-5.59-9.72h-.08q.17 2.57.17 3.67v6.05h-2.44v-12.85h3.44l5.58 9.62h.06q-.13-2.5-.13-3.54v-6.08h2.45Zm10.64 10.6v2.25h-7.4v-12.85h7.4v2.23h-4.68v2.82h4.35v2.24h-4.35v3.31h4.68Zm10.26-1.32q0 1.74-1.25 2.74-1.25 1.01-3.49 1.01-2.05 0-3.63-.78v-2.53q1.3.58 2.2.82.9.24 1.65.24.89 0 1.37-.35.48-.34.48-1.02 0-.37-.21-.67-.21-.29-.62-.57-.41-.27-1.67-.87-1.17-.55-1.76-1.06-.59-.51-.94-1.19-.35-.67-.35-1.58 0-1.7 1.15-2.68 1.16-.97 3.2-.97 1 0 1.91.23.91.24 1.9.67l-.88 2.12q-1.03-.42-1.7-.59-.67-.17-1.32-.17-.78 0-1.19.36-.41.36-.41.94 0 .36.17.63.16.27.53.52.36.25 1.72.9 1.81.86 2.47 1.73.67.86.67 2.12Zm9.92 0q0 1.74-1.26 2.74-1.25 1.01-3.48 1.01-2.06 0-3.64-.78v-2.53q1.3.58 2.2.82.9.24 1.65.24.9 0 1.38-.35.47-.34.47-1.02 0-.37-.21-.67-.21-.29-.62-.57-.41-.27-1.66-.87-1.18-.55-1.77-1.06-.59-.51-.94-1.19-.35-.67-.35-1.58 0-1.7 1.16-2.68 1.15-.97 3.19-.97 1 0 1.91.23.91.24 1.9.67l-.87 2.12q-1.03-.42-1.71-.59-.67-.17-1.32-.17-.77 0-1.18.36-.42.36-.42.94 0 .36.17.63t.53.52q.37.25 1.73.9 1.8.86 2.47 1.73.67.86.67 2.12Zm12.46-7.2q-1.54 0-2.38 1.16-.85 1.15-.85 3.22 0 4.3 3.23 4.3 1.35 0 3.28-.68v2.29q-1.58.66-3.54.66-2.8 0-4.29-1.7-1.48-1.71-1.48-4.89 0-2 .73-3.51.73-1.51 2.1-2.31 1.36-.8 3.2-.8 1.87 0 3.76.9l-.88 2.22q-.72-.35-1.45-.6-.73-.26-1.43-.26Zm17.67 4.33q0 3.19-1.58 4.9-1.58 1.72-4.53 1.72-2.96 0-4.54-1.72-1.58-1.71-1.58-4.92t1.59-4.9q1.58-1.69 4.54-1.69 2.97 0 4.53 1.7 1.57 1.71 1.57 4.91Zm-9.37 0q0 2.15.81 3.24.82 1.09 2.45 1.09 3.26 0 3.26-4.33 0-4.34-3.25-4.34-1.62 0-2.45 1.09-.82 1.09-.82 3.25Zm19.78-6.41h2.72v8.31q0 1.43-.64 2.5t-1.84 1.64q-1.21.58-2.85.58-2.48 0-3.85-1.27t-1.37-3.48v-8.28h2.71v7.87q0 1.48.6 2.18.6.69 1.98.69 1.34 0 1.94-.7.6-.7.6-2.19v-7.85Zm11.32 2.08q-1.54 0-2.38 1.16-.85 1.15-.85 3.22 0 4.3 3.23 4.3 1.35 0 3.28-.68v2.29q-1.58.66-3.53.66-2.81 0-4.29-1.7-1.49-1.71-1.49-4.89 0-2 .73-3.51.73-1.51 2.1-2.31 1.36-.8 3.2-.8 1.87 0 3.76.9l-.88 2.22q-.72-.35-1.45-.6-.73-.26-1.43-.26Zm16.54-2.08v12.85h-2.71v-5.55h-5.09v5.55h-2.73v-12.85h2.73v5.04h5.09v-5.04h2.71Z"/></svg>